# xmcd
#
# Track frame offsets:
#	150
#	13116
#	30291
#	49228
#	63695
#	74450
#	89967
#	105924
#	121848
#	137265
#	151332
#	169782
#	181444
#	196993
#	209812
#	232129
#	245009
#	265617
#	279525
#	291525
#
# Disc length: 4041 seconds
#
# Revision: 1
# Processed by: cddbd v1.5.2PL0 Copyright (c) Steve Scherf et al.
# Submitted via: audiograbber 1.83.01
#
DISCID=310fc714
DTITLE=Various Artist - 100 Hits - Country - CD2
DYEAR=2007
DGENRE=Country
TTITLE0=Lynn Anderson - Rose Garden
TTITLE1=Johnny Cash - (Ghost) Riders In The Sky
TTITLE2=Kris Kristofferson - Me And Bobby McGee
TTITLE3=John Denver - Take Me Home Country Roads
TTITLE4=The Everly Brothers - I'm On My Way Home Again
TTITLE5=Rodney Crowell - Leaving Louisiana In The Broad Daylight
TTITLE6=Maria Muldaur - My Tennessee Mountain Home
TTITLE7=Carlene Carter - Do It In A Heartbeat
TTITLE8=George Jones - Real Deal
TTITLE9=The Forrester Sisters - (That's What You Do) When You're In Love
TTITLE10=Willie Nelson - Whiskey River
TTITLE11=Crystal Gayle - Don't It Make My Brown Eyes Blue
TTITLE12=Hoyt Axton - Della and The Dealer
TTITLE13=John Michael Montgomery - Be My Baby Tonight
TTITLE14=Beth Nielsen Chapman - Beyond The Blue
TTITLE15=Charley Pride - Crystal Chandeliers
TTITLE16=Guy Clark - Desperadoes Waiting For A Train
TTITLE17=Alabama - Tennessee River
TTITLE18=Carlene Carter - My Dixie Darlin'
TTITLE19=Stella Parton - The Danger Of A Stranger
EXTD=
EXTT0=
EXTT1=
EXTT2=
EXTT3=
EXTT4=
EXTT5=
EXTT6=
EXTT7=
EXTT8=
EXTT9=
EXTT10=
EXTT11=
EXTT12=
EXTT13=
EXTT14=
EXTT15=
EXTT16=
EXTT17=
EXTT18=
EXTT19=
PLAYORDER=
